<svg width="200" height="40" viewBox="0 0 200 40" fill="none" xmlns="http://www.w3.org/2000/svg">
  <!-- Gear/Cog Icon -->
  <g transform="translate(0, 4)">
    <path d="M16 6.5L17.5 3H14.5L16 6.5Z" fill="#F7931A"/>
    <path d="M16 25.5L14.5 29H17.5L16 25.5Z" fill="#F7931A"/>
    <path d="M6.5 16L3 14.5V17.5L6.5 16Z" fill="#F7931A"/>
    <path d="M25.5 16L29 17.5V14.5L25.5 16Z" fill="#F7931A"/>
    <path d="M8.5 8.5L5.5 6.5L4.5 9.5L8.5 8.5Z" fill="#F7931A"/>
    <path d="M23.5 23.5L26.5 25.5L27.5 22.5L23.5 23.5Z" fill="#F7931A"/>
    <path d="M8.5 23.5L4.5 22.5L5.5 25.5L8.5 23.5Z" fill="#F7931A"/>
    <path d="M23.5 8.5L27.5 9.5L26.5 6.5L23.5 8.5Z" fill="#F7931A"/>
    <circle cx="16" cy="16" r="8" stroke="#F7931A" stroke-width="2.5" fill="none"/>
    <circle cx="16" cy="16" r="4" fill="#F7931A"/>
  </g>

  <!-- CoEngineers Text -->
  <text x="38" y="28" font-family="Inter, system-ui, sans-serif" font-size="22" font-weight="700" fill="currentColor">
    <tspan fill="#F7931A">Co</tspan><tspan>Engineers</tspan>
  </text>
</svg>
